<svg xmlns="http://www.w3.org/2000/svg" viewBox="0 0 100 100" aria-hidden="true">
  <g fill="#D9B35F">
    <path d="M50 7 68 41H32L50 7Z"></path>
    <path d="M30 45 18 76h23l-8-9h-2l8-22h-9Z"></path>
    <path d="M70 45 82 76H59l8-9h2l-8-22h9Z"></path>
    <path d="M26 82h48l6 10H20l6-10Z"></path>
    <path fill-rule="evenodd" d="M50 48a19 19 0 1 1 0 38 19 19 0 0 1 0-38Zm0 11a8 8 0 1 0 0 16 8 8 0 0 0 0-16Z"></path>
    <path d="M9 59c-5-23 9-44 32-50L28 32c-9 5-15 15-15 27 0 5 1 9 3 13l-7-13Z"></path>
    <path d="M91 59c5-23-9-44-32-50l13 23c9 5 15 15 15 27 0 5-1 9-3 13l7-13Z"></path>
  </g>
</svg>